<svg xmlns="http://www.w3.org/2000/svg" width="48" height="12" viewBox="0 0 48 12" fill="none">
  <path fill-rule="evenodd" clip-rule="evenodd" d="M14.5342 0C16.7896 0 18.1955 0.929812 18.5471 2.02209C18.7668 2.71584 18.6789 3.57197 18.5471 4.01466C18.3274 4.75266 17.5366 5.57934 16.5993 5.57934C17.5366 5.57934 18.7083 6.22875 19.0743 7.26197C19.294 7.86712 19.3527 8.72325 19.089 9.57928C18.6057 11.1292 17.0972 12 14.5342 12C11.9712 12 10.4626 11.1292 9.97935 9.57928C9.71572 8.72325 9.77433 7.88194 9.99395 7.26197C10.3602 6.22875 11.5317 5.57934 12.4691 5.57934C11.5317 5.57934 10.7556 4.59028 10.5505 4.01466C10.3894 3.57197 10.3016 2.70103 10.5212 2.02209C10.8727 0.929812 12.0738 0 14.5342 0ZM24.4676 3.54239C26.1372 3.54239 27.3235 4.02952 28.0705 4.81176C28.7881 5.56458 29.125 6.61251 29.125 7.76386C29.125 8.94455 28.7736 9.93361 28.0999 10.6568C27.2942 11.5128 26.0494 11.9851 24.4383 11.9851C22.842 11.9851 21.5824 11.5425 20.7622 10.6716C20.1179 9.96305 19.7517 9.00361 19.7517 7.76386C19.7517 6.65676 20.0886 5.63836 20.7915 4.88555C21.5531 4.05905 22.7541 3.54239 24.4676 3.54239ZM43.4561 3.54239C45.3015 3.54239 46.5609 4.22133 47.2786 5.26926C47.879 6.15492 48.0988 7.32098 47.9669 8.54611H41.1419C41.1419 8.91511 41.3031 9.19551 41.5814 9.50555C41.9182 9.87455 42.5773 10.1107 43.4561 10.1107C44.115 10.1107 44.5984 9.99258 44.9353 9.84501C45.36 9.65311 45.565 9.38742 45.609 9.21023H47.9083C47.718 9.99258 47.2493 10.7306 46.4438 11.2472C45.7408 11.7048 44.7595 11.9851 43.4561 11.9851C41.6692 11.9851 40.2193 11.4539 39.4431 10.214C39.0477 9.57923 38.828 8.76755 38.828 7.74905C38.828 6.81914 39.0769 5.99255 39.5309 5.34314C40.3072 4.20661 41.6986 3.54239 43.4561 3.54239ZM2.34326 0.690872V4.8855C2.66549 4.20659 3.82251 3.55718 5.28716 3.55718C6.61981 3.55718 7.60112 3.98525 8.27488 4.78231C8.87535 5.47596 9.25609 6.39115 9.25609 7.64571C9.25609 8.98897 8.84605 9.97784 8.23088 10.7011C7.63042 11.4095 6.44409 11.9114 5.25777 11.9114C4.07424 11.9114 2.96182 11.6248 2.36907 10.8818L2.34326 10.8487L2.16753 11.8524H0V0.690872H2.34326ZM35.0256 3.55715C37.1785 3.55715 38.1012 4.60508 38.1012 6.6568L38.1013 7.08048C38.1021 11.4725 38.1164 11.831 38.1444 11.8518L38.1452 11.8523L35.8282 11.8523C35.7366 11.8476 35.7292 11.6155 35.7286 8.24137L35.7286 7.27668C35.7286 6.25827 35.216 5.65302 34.1176 5.65302C33.1034 5.65302 32.2039 6.18753 32.1847 7.22786L32.1844 7.26196V11.8523H29.8264V3.73433H32.1111V4.91502C32.5798 3.9704 33.7808 3.55715 35.0256 3.55715ZM14.5342 6.52397C13.4064 6.52397 12.6741 6.834 12.3374 7.48331C12.0738 7.98525 12.103 8.73797 12.3374 9.19556C12.6595 9.80072 13.4797 10.1254 14.5342 10.1254C15.5887 10.1254 16.4088 9.80072 16.7311 9.19556C16.9654 8.73797 17.0093 8.04431 16.7311 7.48331C16.3942 6.81919 15.662 6.52397 14.5342 6.52397ZM24.4676 5.5793C23.545 5.5793 22.9152 5.87452 22.5344 6.37636C22.2415 6.74536 22.1097 7.23248 22.1097 7.77858C22.1097 8.41326 22.2415 8.9003 22.4905 9.23986C22.886 9.78595 23.5596 10.0074 24.4676 10.0074C25.3171 10.0074 26.0055 9.75642 26.4008 9.22505C26.6792 8.87086 26.8256 8.38373 26.8256 7.77858C26.8256 7.15861 26.7085 6.62733 26.3862 6.24352C26.0201 5.83027 25.4196 5.5793 24.4676 5.5793ZM4.62809 5.62362C3.63209 5.62362 2.95842 5.97781 2.57767 6.55353C2.35786 6.893 2.24065 7.32096 2.24065 7.79328C2.24065 8.30984 2.35786 8.75272 2.59228 9.09228C2.95842 9.63828 3.61749 9.94831 4.5987 9.94831C5.536 9.94831 6.20967 9.63828 6.57591 9.07746C6.79554 8.72328 6.89814 8.29521 6.89814 7.79328C6.89814 7.32096 6.79554 6.893 6.57591 6.55353C6.22447 5.99262 5.58 5.62362 4.62809 5.62362ZM43.4707 5.44645C42.6359 5.44645 42.0208 5.66789 41.6254 6.02208C41.3469 6.27305 41.1274 6.76008 41.1274 6.99633H45.6382C45.6382 6.76008 45.5358 6.37636 45.2429 6.06642C44.9059 5.72686 44.3495 5.44645 43.4707 5.44645ZM14.5342 1.99256C13.8312 1.99256 13.1428 2.19928 12.8207 2.68631C12.601 3.02578 12.5862 3.66047 12.806 4.07372C13.0403 4.51659 13.5675 4.73803 14.5342 4.73803C15.5007 4.73803 16.028 4.51659 16.2623 4.07372C16.4381 3.73434 16.4674 3.02578 16.2478 2.68631C15.9256 2.18447 15.2371 1.99256 14.5342 1.99256Z" fill="black"/>
</svg>