<svg width="16" height="18" viewBox="0 0 16 18" fill="none" xmlns="http://www.w3.org/2000/svg">
  <path d="M3.33333 1L1 4.2V15.4C1 15.8243 1.16389 16.2313 1.45561 16.5314C1.74733 16.8314 2.143 17 2.55556 17H13.4444C13.857 17 14.2527 16.8314 14.5444 16.5314C14.8361 16.2313 15 15.8243 15 15.4V4.2L12.6667 1H3.33333Z" stroke="white" stroke-width="1.6" stroke-linecap="round" stroke-linejoin="round"/>
  <path d="M1 4.19995H15" stroke="white" stroke-width="1.6" stroke-linecap="round" stroke-linejoin="round"/>
  <path d="M11.1111 7.3999C11.1111 8.2486 10.7834 9.06253 10.1999 9.66264C9.61647 10.2628 8.82514 10.5999 8.00003 10.5999C7.17491 10.5999 6.38359 10.2628 5.80014 9.66264C5.21669 9.06253 4.88892 8.2486 4.88892 7.3999" stroke="#0890CD" stroke-width="1.6" stroke-linecap="round" stroke-linejoin="round"/>
</svg>
