<svg width="23" height="26" viewBox="0 0 23 26" fill="none" xmlns="http://www.w3.org/2000/svg">
  <path d="M4.5 1L1 5.8V22.6C1 23.2365 1.24583 23.847 1.68342 24.2971C2.121 24.7471 2.71449 25 3.33333 25H19.6667C20.2855 25 20.879 24.7471 21.3166 24.2971C21.7542 23.847 22 23.2365 22 22.6V5.8L18.5 1H4.5Z" stroke="#34425E" stroke-width="2" stroke-linecap="round" stroke-linejoin="round"/>
  <path d="M1 5.80005H22" stroke="#34425E" stroke-width="2" stroke-linecap="round" stroke-linejoin="round"/>
  <path d="M16.1663 10.6006C16.1663 11.8736 15.6747 13.0945 14.7995 13.9947C13.9243 14.8949 12.7374 15.4006 11.4997 15.4006C10.262 15.4006 9.07501 14.8949 8.19984 13.9947C7.32467 13.0945 6.83301 11.8736 6.83301 10.6006" stroke="#0890CD" stroke-width="2" stroke-linecap="round" stroke-linejoin="round"/>
</svg>
