<svg width="24" height="24" viewBox="0 0 24 24" fill="none" xmlns="http://www.w3.org/2000/svg">
  <g clip-path="url(#clip0)">
    <path d="M5.23205 14.6747L10.9334 11.384V4.8C10.9334 4.21067 11.4107 3.73333 12.0001 3.73333C12.5894 3.73333 13.0667 4.21067 13.0667 4.8V12H13.0614C13.0614 12.368 12.8747 12.7253 12.5334 12.9227L6.30139 16.5227L6.29872 16.5253C5.78939 16.8187 5.13605 16.6453 4.84005 16.136C4.54672 15.624 4.72005 14.9707 5.23205 14.6747ZM1.60805 18C1.61072 18.0053 1.61339 18.008 1.61872 18.0133L1.61605 18.016C3.69072 21.5947 7.56539 24 12.0001 24C18.6267 24 24.0001 18.6267 24.0001 12C24.0001 5.37333 18.6267 0 12.0001 0C11.4107 0 10.9334 0.477333 10.9334 1.06667C10.9334 1.656 11.4107 2.13333 12.0001 2.13333H12.0027C17.4507 2.13333 21.8667 6.552 21.8667 12C21.8667 17.448 17.4507 21.8667 12.0001 21.8667C8.33872 21.8667 5.14139 19.872 3.44005 16.9067H3.43739C3.13605 16.416 2.49872 16.2507 1.99739 16.5413C1.48805 16.8373 1.31205 17.4907 1.60805 18Z" fill="#34425E"/>
    <path d="M0 12C0 11.4107 0.477333 10.9333 1.06667 10.9333C1.656 10.9333 2.13333 11.4107 2.13333 12C2.13333 12.5893 1.656 13.0667 1.06667 13.0667C0.477333 13.0667 0 12.5893 0 12Z" fill="#0992C9"/>
    <path d="M1.608 6.00001C1.90133 5.49067 2.552 5.31734 3.064 5.61067C3.576 5.90401 3.74933 6.55734 3.456 7.06401C3.16 7.57601 2.50667 7.74934 1.99733 7.45601C1.488 7.16267 1.312 6.50934 1.608 6.00001Z" fill="#0992C9"/>
    <path d="M6 1.60534C6.50933 1.31201 7.16 1.48801 7.456 1.99734C7.752 2.50934 7.576 3.16001 7.06667 3.45067C6.55467 3.74667 5.90133 3.57067 5.608 3.06134C5.31467 2.55201 5.49067 1.89867 6 1.60534Z" fill="#0992C9"/>
  </g>
  <defs>
    <clipPath id="clip0">
      <rect width="24" height="24" fill="white"/>
    </clipPath>
  </defs>
</svg>
