<svg width="29" height="24" viewBox="0 0 29 24" fill="none" xmlns="http://www.w3.org/2000/svg">
  <path d="M20.601 0C17.3498 0 14.601 2.06897 13.5665 4.96552L9.84237 3.25123C9.60591 3.133 9.31035 3.133 9.04434 3.25123L0.561576 7.12315C0.206897 7.27094 0 7.62562 0 8.00985V19.1527C0 19.5369 0.206897 19.8621 0.561576 20.0394L9.04434 23.9113C9.16256 23.9704 9.31035 24 9.45813 24C9.60591 24 9.72414 23.9704 9.87192 23.9113L18.3547 20.0394C18.7094 19.8916 18.9163 19.5369 18.9163 19.1527V14.7192C19.4483 14.8374 20.0394 14.9261 20.601 14.9261C24.7094 14.9261 28.0788 11.5862 28.0788 7.44828C28.0788 3.31034 24.7389 0 20.601 0ZM8.48276 21.5468L1.92118 18.532V9.51724L8.48276 12.532V21.5468ZM9.45813 10.8473L3.28079 8.00985L9.45813 5.17241L13.1527 6.8867C13.1232 7.0936 13.1232 7.27094 13.1232 7.47783C13.1232 8.03941 13.1823 8.57143 13.3005 9.07389L9.45813 10.8473ZM16.9951 18.532L10.4039 21.5468V12.5025L13.9507 10.8768C14.6305 12.1773 15.6946 13.2709 16.9655 13.9803V18.532H16.9951ZM20.601 13.0049C17.5271 13.0049 15.0443 10.5222 15.0443 7.44828C15.0443 4.37438 17.5271 1.89163 20.601 1.89163C23.6749 1.89163 26.1576 4.40394 26.1576 7.47783C26.1576 10.5222 23.6749 13.0049 20.601 13.0049Z" fill="#34425E"/>
  <path d="M22.1675 5.29067L19.8916 7.56653L19.0345 6.70939C18.6503 6.32515 18.0591 6.32515 17.6749 6.70939C17.2907 7.09362 17.2907 7.68476 17.6749 8.06899L19.2118 9.60594C19.3892 9.78328 19.6552 9.90151 19.8916 9.90151C20.1281 9.90151 20.3941 9.81284 20.5714 9.60594L23.5271 6.65027C23.9113 6.26604 23.9113 5.6749 23.5271 5.29067C23.1724 4.93599 22.5517 4.93599 22.1675 5.29067Z" fill="#0992C9"/>
</svg>
