<svg width="54" height="12" viewBox="0 0 54 12" fill="none" xmlns="http://www.w3.org/2000/svg">
<mask id="mask0_3903_6133" style="mask-type:alpha" maskUnits="userSpaceOnUse" x="0" y="0" width="54" height="12">
<g clip-path="url(#clip0_3903_6133)">
<path d="M9.50277 0H6.8439C6.8439 2.17211 5.84236 4.1543 4.10158 5.45994L3.05234 6.24332L7.13006 11.7745H10.4805L6.72467 6.68249C8.50122 4.92582 9.50277 2.55193 9.50277 0Z" fill="black"/>
<path d="M2.71848 0H0V11.7745H2.71848V0Z" fill="black"/>
<path d="M13.8309 0H11.2674V11.7745H13.8309V0Z" fill="black"/>
<path d="M36.3179 3.40649C35.3402 3.40649 34.4102 3.70323 33.7902 4.54596V3.63201H31.3579V11.7744H33.826V7.50145C33.826 6.26703 34.6606 5.66169 35.6622 5.66169C36.7353 5.66169 37.3553 6.30264 37.3553 7.48958V11.7863H39.7995V6.59937C39.7995 4.70026 38.2853 3.40649 36.3179 3.40649Z" fill="black"/>
<path d="M21.5809 3.63201V4.15427C20.8894 3.67949 20.0548 3.40649 19.1486 3.40649C16.764 3.40649 14.8324 5.32934 14.8324 7.70323C14.8324 10.0771 16.764 12 19.1486 12C20.0548 12 20.8894 11.727 21.5809 11.2522V11.7744H24.0252V3.63201H21.5809ZM19.3513 9.79225C18.1232 9.79225 17.1336 8.85456 17.1336 7.70323C17.1336 6.55189 18.1232 5.61421 19.3513 5.61421C20.5794 5.61421 21.569 6.55189 21.569 7.70323C21.569 8.85456 20.5794 9.79225 19.3513 9.79225Z" fill="black"/>
<path d="M27.8167 4.68846V3.63208H25.3128V11.7745H27.8286V7.97629C27.8286 6.69439 29.2236 6.00597 30.1894 6.00597C30.2013 6.00597 30.2132 6.00597 30.2132 6.00597V3.63208C29.2236 3.63208 28.3055 4.05938 27.8167 4.68846Z" fill="black"/>
<path d="M47.4065 3.63201V4.15427C46.7149 3.67949 45.8803 3.40649 44.9741 3.40649C42.5895 3.40649 40.658 5.32934 40.658 7.70323C40.658 10.0771 42.5895 12 44.9741 12C45.8803 12 46.7149 11.727 47.4065 11.2522V11.7744H49.8507V3.63201H47.4065ZM45.1768 9.79225C43.9488 9.79225 42.9591 8.85456 42.9591 7.70323C42.9591 6.55189 43.9488 5.61421 45.1768 5.61421C46.4049 5.61421 47.3945 6.55189 47.3945 7.70323C47.4065 8.85456 46.4049 9.79225 45.1768 9.79225Z" fill="black"/>
<path d="M51.7465 3.86948C51.7465 3.75078 51.663 3.67957 51.5318 3.67957H51.3053V4.29678H51.4126V4.07126H51.5318L51.6272 4.29678H51.7465L51.6391 4.04752C51.7107 4.01191 51.7465 3.95256 51.7465 3.86948ZM51.5318 3.96443H51.4126V3.77452H51.5318C51.6034 3.77452 51.6391 3.81013 51.6391 3.86948C51.6391 3.92882 51.6153 3.96443 51.5318 3.96443Z" fill="black"/>
<path d="M51.4961 3.41846C51.1742 3.41846 50.9119 3.67959 50.9119 4.00006C50.9238 4.32054 51.1742 4.58166 51.4961 4.58166C51.818 4.58166 52.0803 4.32054 52.0803 4.00006C52.0803 3.67959 51.818 3.41846 51.4961 3.41846ZM51.4961 4.47484C51.2338 4.47484 51.0311 4.26119 51.0311 4.00006C51.0311 3.73893 51.2457 3.52528 51.4961 3.52528C51.7584 3.52528 51.9611 3.73893 51.9611 4.00006C51.9611 4.26119 51.7465 4.47484 51.4961 4.47484Z" fill="black"/>
<path d="M52.4619 8.89014C51.6154 8.89014 50.9238 9.57856 50.9238 10.4213C50.9238 11.264 51.6154 11.9525 52.4619 11.9525C53.3085 11.9525 54 11.264 54 10.4213C54 9.5667 53.3085 8.89014 52.4619 8.89014Z" fill="black"/>
</g>
</mask>
<g mask="url(#mask0_3903_6133)">
<rect x="-3" width="57" height="12" fill="#34425E"/>
</g>
<defs>
<clipPath id="clip0_3903_6133">
<rect width="54" height="12" fill="white"/>
</clipPath>
</defs>
</svg>
