<svg width="21" height="25" viewBox="0 0 21 25" fill="none" xmlns="http://www.w3.org/2000/svg">
  <path d="M19.6364 10.5404C19.6364 17.7879 10.3182 24 10.3182 24C10.3182 24 1 17.7879 1 10.5404C1 8.06903 1.98174 5.69891 3.72924 3.95141C5.47674 2.2039 7.84686 1.22217 10.3182 1.22217C12.7895 1.22217 15.1597 2.2039 16.9072 3.95141C18.6547 5.69891 19.6364 8.06903 19.6364 10.5404Z" stroke="#34425E" stroke-width="2" stroke-linecap="round" stroke-linejoin="round"/>
  <path d="M10.3184 13.6462C12.0338 13.6462 13.4244 12.2556 13.4244 10.5402C13.4244 8.82472 12.0338 7.43408 10.3184 7.43408C8.60301 7.43408 7.2124 8.82472 7.2124 10.5402C7.2124 12.2556 8.60301 13.6462 10.3184 13.6462Z" stroke="#0890CD" stroke-width="2" stroke-linecap="round" stroke-linejoin="round"/>
</svg>
