<svg width="46" height="12" viewBox="0 0 46 12" fill="none" xmlns="http://www.w3.org/2000/svg">
<mask id="mask0_3919_7249" style="mask-type:alpha" maskUnits="userSpaceOnUse" x="0" y="0" width="46" height="12">
<path d="M16.804 2.4541H14.3171C14.1469 2.4541 14.0022 2.57774 13.9757 2.74574L12.9698 9.12283C12.9498 9.24865 13.0473 9.3621 13.1749 9.3621H14.3622C14.5324 9.3621 14.6771 9.23847 14.7037 9.0701L14.9749 7.3501C15.0011 7.18174 15.1462 7.0581 15.316 7.0581H16.1033C17.7415 7.0581 18.6869 6.26537 18.9338 4.69447C19.0451 4.00719 18.9386 3.46719 18.6167 3.08901C18.2633 2.67374 17.6364 2.4541 16.804 2.4541ZM17.0909 4.78319C16.9549 5.67556 16.2731 5.67556 15.6138 5.67556H15.2386L15.5018 4.00901C15.5175 3.90828 15.6047 3.8341 15.7066 3.8341H15.8786C16.3277 3.8341 16.7513 3.8341 16.9702 4.0901C17.1007 4.24283 17.1407 4.46974 17.0909 4.78319Z" fill="#253B80"/>
<path d="M24.2378 4.75458H23.0469C22.9455 4.75458 22.8578 4.82876 22.8422 4.92949L22.7895 5.26258L22.7062 5.14185C22.4484 4.76767 21.8735 4.64258 21.2996 4.64258C19.9836 4.64258 18.8596 5.63931 18.6407 7.03749C18.5269 7.73494 18.6887 8.40185 19.0844 8.86694C19.4473 9.29458 19.9665 9.47276 20.5844 9.47276C21.6447 9.47276 22.2327 8.79094 22.2327 8.79094L22.1796 9.12185C22.1596 9.2484 22.2571 9.36185 22.384 9.36185H23.4567C23.6273 9.36185 23.7713 9.23821 23.7982 9.06985L24.4418 4.99385C24.4622 4.8684 24.3651 4.75458 24.2378 4.75458ZM22.5778 7.0724C22.4629 7.75276 21.9229 8.20949 21.2342 8.20949C20.8884 8.20949 20.612 8.09858 20.4345 7.8884C20.2585 7.67967 20.1916 7.38258 20.2476 7.05167C20.3549 6.37712 20.904 5.90549 21.5822 5.90549C21.9204 5.90549 22.1953 6.01785 22.3764 6.22985C22.5578 6.44403 22.6298 6.74294 22.5778 7.0724Z" fill="#253B80"/>
<path d="M30.5803 4.75464H29.3836C29.2694 4.75464 29.1621 4.81137 29.0974 4.90627L27.4469 7.33755L26.7472 5.00118C26.7032 4.855 26.5683 4.75464 26.4156 4.75464H25.2396C25.0967 4.75464 24.9974 4.89428 25.0429 5.02882L26.3611 8.89718L25.1218 10.6466C25.0243 10.7845 25.1225 10.9739 25.2909 10.9739H26.4861C26.5996 10.9739 26.7058 10.9186 26.7701 10.8255L30.7505 5.08009C30.8458 4.94264 30.748 4.75464 30.5803 4.75464Z" fill="#253B80"/>
<path d="M34.5425 2.4541H32.0553C31.8855 2.4541 31.7407 2.57774 31.7142 2.74574L30.7084 9.12283C30.6884 9.24865 30.7858 9.3621 30.9127 9.3621H32.1891C32.3076 9.3621 32.4091 9.27556 32.4276 9.15774L32.7131 7.3501C32.7393 7.18174 32.8844 7.0581 33.0542 7.0581H33.8411C35.4796 7.0581 36.4247 6.26537 36.672 4.69447C36.7836 4.00719 36.6764 3.46719 36.3545 3.08901C36.0015 2.67374 35.3749 2.4541 34.5425 2.4541ZM34.8295 4.78319C34.6938 5.67556 34.012 5.67556 33.3524 5.67556H32.9775L33.2411 4.00901C33.2567 3.90828 33.3433 3.8341 33.4455 3.8341H33.6175C34.0662 3.8341 34.4902 3.8341 34.7091 4.0901C34.8396 4.24283 34.8793 4.46974 34.8295 4.78319Z" fill="#179BD7"/>
<path d="M41.976 4.75458H40.7858C40.6836 4.75458 40.5967 4.82876 40.5815 4.92949L40.5287 5.26258L40.4451 5.14185C40.1873 4.76767 39.6127 4.64258 39.0389 4.64258C37.7229 4.64258 36.5993 5.63931 36.3804 7.03749C36.2669 7.73494 36.428 8.40185 36.8236 8.86694C37.1873 9.29458 37.7058 9.47276 38.3236 9.47276C39.384 9.47276 39.972 8.79094 39.972 8.79094L39.9189 9.12185C39.8989 9.2484 39.9964 9.36185 40.124 9.36185H41.1964C41.3662 9.36185 41.5109 9.23821 41.5375 9.06985L42.1815 4.99385C42.2011 4.8684 42.1036 4.75458 41.976 4.75458ZM40.316 7.0724C40.2018 7.75276 39.6611 8.20949 38.9724 8.20949C38.6273 8.20949 38.3502 8.09858 38.1727 7.8884C37.9967 7.67967 37.9306 7.38258 37.9858 7.05167C38.0938 6.37712 38.6422 5.90549 39.3204 5.90549C39.6586 5.90549 39.9335 6.01785 40.1146 6.22985C40.2967 6.44403 40.3687 6.74294 40.316 7.0724Z" fill="#179BD7"/>
<path d="M43.38 2.62913L42.3592 9.12295C42.3392 9.24877 42.4367 9.36222 42.5636 9.36222H43.5898C43.7603 9.36222 43.9051 9.23858 43.9312 9.07022L44.9378 2.69349C44.9578 2.56768 44.8603 2.45386 44.7334 2.45386H43.5843C43.4829 2.45422 43.3956 2.5284 43.38 2.62913Z" fill="#179BD7"/>
<path d="M2.64217 10.6014L2.83235 9.39341L2.40871 9.38359H0.385803L1.79162 0.469769C1.79598 0.44286 1.81017 0.417769 1.83089 0.399951C1.85162 0.382133 1.87817 0.372314 1.9058 0.372314H5.31671C6.44908 0.372314 7.23053 0.607951 7.63853 1.07304C7.8298 1.29122 7.95162 1.51922 8.01053 1.77013C8.07235 2.03341 8.07344 2.34795 8.01307 2.73159L8.00871 2.75959V3.00541L8.19998 3.11377C8.36107 3.19922 8.48907 3.29704 8.58726 3.40904C8.75089 3.59559 8.85671 3.83268 8.90144 4.11377C8.94762 4.40286 8.93235 4.74686 8.85671 5.13631C8.76944 5.58431 8.62835 5.9745 8.4378 6.29377C8.26253 6.58795 8.03926 6.83195 7.77417 7.02104C7.52108 7.20068 7.22035 7.33704 6.88035 7.42431C6.55089 7.51013 6.17526 7.55341 5.76326 7.55341H5.4978C5.30798 7.55341 5.12362 7.62177 4.97889 7.74432C4.8338 7.86941 4.7378 8.04032 4.70835 8.22722L4.68835 8.33595L4.35235 10.465L4.33708 10.5432C4.33308 10.568 4.32617 10.5803 4.31598 10.5887C4.30689 10.5963 4.2938 10.6014 4.28108 10.6014H2.64217Z" fill="#253B80"/>
<path d="M8.38109 2.78809C8.37091 2.85318 8.35927 2.91972 8.34618 2.98809C7.89637 5.29754 6.35746 6.09536 4.392 6.09536H3.39127C3.15091 6.09536 2.94837 6.2699 2.91091 6.50699L2.39855 9.75645L2.25346 10.6775C2.22909 10.8332 2.34909 10.9735 2.50618 10.9735H4.28109C4.49127 10.9735 4.66982 10.8208 4.70291 10.6135L4.72037 10.5234L5.05455 8.40263L5.076 8.28627C5.10873 8.07827 5.28764 7.92554 5.49782 7.92554H5.76327C7.48291 7.92554 8.82909 7.22736 9.22255 5.207C9.38691 4.363 9.30182 3.65827 8.86691 3.16263C8.73527 3.01318 8.572 2.88918 8.38109 2.78809Z" fill="#179BD7"/>
<path d="M7.91053 2.60042C7.8418 2.58042 7.77089 2.56224 7.69816 2.54587C7.62507 2.52987 7.55016 2.51569 7.47307 2.50333C7.20325 2.45969 6.90762 2.43896 6.59089 2.43896H3.91743C3.85162 2.43896 3.78907 2.45387 3.73307 2.48078C3.6098 2.54006 3.51816 2.65678 3.49598 2.79969L2.92725 6.40187L2.91089 6.50696C2.94834 6.26987 3.15089 6.09533 3.39125 6.09533H4.39198C6.35743 6.09533 7.89634 5.29715 8.34616 2.98806C8.35962 2.91969 8.37089 2.85315 8.38107 2.78806C8.26725 2.72769 8.14398 2.67606 8.01125 2.63206C7.97853 2.62115 7.94471 2.6106 7.91053 2.60042Z" fill="#222D65"/>
<path d="M3.496 2.79964C3.51818 2.65673 3.60981 2.54 3.73309 2.48109C3.78945 2.45418 3.85163 2.43927 3.91745 2.43927H6.59091C6.90763 2.43927 7.20327 2.46 7.47309 2.50364C7.55018 2.516 7.62509 2.53018 7.69818 2.54618C7.77091 2.56255 7.84181 2.58073 7.91054 2.60073C7.94472 2.61091 7.97854 2.62145 8.01163 2.632C8.14436 2.676 8.26763 2.728 8.38145 2.788C8.51527 1.93455 8.38036 1.35345 7.91891 0.827273C7.41018 0.248 6.492 0 5.31709 0H1.90618C1.66618 0 1.46145 0.174545 1.42436 0.412L0.0036323 9.41745C-0.0243677 9.59564 0.113087 9.75636 0.292723 9.75636H2.39854L2.92727 6.40182L3.496 2.79964Z" fill="#253B80"/>
</mask>
<g mask="url(#mask0_3919_7249)">
<rect x="-1" width="47" height="11" fill="#34425E"/>
</g>
</svg>
