<svg width="25" height="20" viewBox="0 0 25 20" fill="none" xmlns="http://www.w3.org/2000/svg">
<path fill-rule="evenodd" clip-rule="evenodd" d="M14.6459 1.39011e-06H9.98722C4.50986 -0.00276382 0 4.12201 0 10.0866C0 15.5433 4.50894 20.0275 9.98722 19.9999H14.6459C20.0593 20.0257 25 15.5414 25 10.0866C25 4.12017 20.0584 -0.00276382 14.6459 1.39011e-06ZM10.0091 19.139C5.00365 19.1362 0.946514 15.0382 0.945601 9.98242C0.946514 4.92485 5.00365 0.826801 10.0091 0.825879C15.0155 0.826801 19.0736 4.92577 19.0736 9.98242C19.0736 15.0382 15.0164 19.1362 10.0091 19.139ZM12.0647 4.56396V15.3972C14.2206 14.5593 15.7513 12.454 15.7549 9.9801C15.7522 7.508 14.2206 5.39906 12.0647 4.56396ZM7.95182 15.3944C5.79593 14.5574 4.26891 12.4513 4.26526 9.9801C4.26982 7.50892 5.79684 5.40182 7.95182 4.56396V15.3944Z" fill="#34425E"/>
</svg>
