<svg width="46" height="12" viewBox="0 0 46 12" fill="none" xmlns="http://www.w3.org/2000/svg">
<mask id="mask0_3919_5803" style="mask-type:alpha" maskUnits="userSpaceOnUse" x="0" y="0" width="46" height="12">
<path d="M16.8041 2.45416H14.3172C14.147 2.45416 14.0023 2.5778 13.9757 2.7458L12.9699 9.12289C12.9499 9.24871 13.0474 9.36216 13.175 9.36216H14.3623C14.5324 9.36216 14.6772 9.23853 14.7037 9.07016L14.975 7.35016C15.0012 7.1818 15.1463 7.05816 15.3161 7.05816H16.1034C17.7415 7.05816 18.687 6.26544 18.9339 4.69453C19.0452 4.00725 18.9386 3.46725 18.6168 3.08907C18.2634 2.6738 17.6364 2.45416 16.8041 2.45416ZM17.091 4.78325C16.955 5.67562 16.2732 5.67562 15.6139 5.67562H15.2386L15.5019 4.00907C15.5175 3.90834 15.6048 3.83416 15.7066 3.83416H15.8786C16.3277 3.83416 16.7514 3.83416 16.9703 4.09016C17.1008 4.24289 17.1408 4.4698 17.091 4.78325Z" fill="#253B80"/>
<path d="M24.2378 4.75452H23.0469C22.9455 4.75452 22.8578 4.8287 22.8422 4.92943L22.7895 5.26252L22.7062 5.14179C22.4484 4.76761 21.8735 4.64252 21.2996 4.64252C19.9836 4.64252 18.8596 5.63924 18.6407 7.03743C18.5269 7.73488 18.6887 8.40179 19.0844 8.86688C19.4473 9.29452 19.9665 9.4727 20.5844 9.4727C21.6447 9.4727 22.2327 8.79088 22.2327 8.79088L22.1796 9.12179C22.1596 9.24833 22.2571 9.36179 22.384 9.36179H23.4567C23.6273 9.36179 23.7713 9.23815 23.7982 9.06979L24.4418 4.99379C24.4622 4.86834 24.3651 4.75452 24.2378 4.75452ZM22.5778 7.07233C22.4629 7.7527 21.9229 8.20943 21.2342 8.20943C20.8884 8.20943 20.612 8.09852 20.4345 7.88834C20.2585 7.67961 20.1916 7.38252 20.2476 7.05161C20.3549 6.37706 20.904 5.90543 21.5822 5.90543C21.9204 5.90543 22.1953 6.01779 22.3764 6.22979C22.5578 6.44397 22.6298 6.74288 22.5778 7.07233Z" fill="#253B80"/>
<path d="M30.5803 4.75452H29.3836C29.2694 4.75452 29.1621 4.81124 29.0974 4.90615L27.4469 7.33743L26.7472 5.00106C26.7032 4.85488 26.5683 4.75452 26.4156 4.75452H25.2396C25.0967 4.75452 24.9974 4.89415 25.0429 5.0287L26.3611 8.89706L25.1218 10.6465C25.0243 10.7843 25.1225 10.9738 25.2909 10.9738H26.4861C26.5996 10.9738 26.7058 10.9185 26.7701 10.8254L30.7505 5.07997C30.8458 4.94252 30.748 4.75452 30.5803 4.75452Z" fill="#253B80"/>
<path d="M34.5426 2.45416H32.0553C31.8855 2.45416 31.7408 2.5778 31.7142 2.7458L30.7084 9.12289C30.6884 9.24871 30.7859 9.36216 30.9128 9.36216H32.1891C32.3077 9.36216 32.4092 9.27562 32.4277 9.1578L32.7132 7.35016C32.7393 7.1818 32.8844 7.05816 33.0542 7.05816H33.8412C35.4797 7.05816 36.4248 6.26544 36.6721 4.69453C36.7837 4.00725 36.6764 3.46725 36.3546 3.08907C36.0015 2.6738 35.375 2.45416 34.5426 2.45416ZM34.8295 4.78325C34.6939 5.67562 34.0121 5.67562 33.3524 5.67562H32.9775L33.2412 4.00907C33.2568 3.90834 33.3433 3.83416 33.4455 3.83416H33.6175C34.0662 3.83416 34.4902 3.83416 34.7092 4.09016C34.8397 4.24289 34.8793 4.4698 34.8295 4.78325Z" fill="#179BD7"/>
<path d="M41.976 4.75452H40.7858C40.6836 4.75452 40.5967 4.8287 40.5815 4.92943L40.5287 5.26252L40.4451 5.14179C40.1873 4.76761 39.6127 4.64252 39.0389 4.64252C37.7229 4.64252 36.5993 5.63924 36.3804 7.03743C36.2669 7.73488 36.428 8.40179 36.8236 8.86688C37.1873 9.29452 37.7058 9.4727 38.3236 9.4727C39.384 9.4727 39.972 8.79088 39.972 8.79088L39.9189 9.12179C39.8989 9.24833 39.9964 9.36179 40.124 9.36179H41.1964C41.3662 9.36179 41.5109 9.23815 41.5375 9.06979L42.1815 4.99379C42.2011 4.86834 42.1036 4.75452 41.976 4.75452ZM40.316 7.07233C40.2018 7.7527 39.6611 8.20943 38.9724 8.20943C38.6273 8.20943 38.3502 8.09852 38.1727 7.88834C37.9967 7.67961 37.9306 7.38252 37.9858 7.05161C38.0938 6.37706 38.6422 5.90543 39.3204 5.90543C39.6586 5.90543 39.9335 6.01779 40.1146 6.22979C40.2967 6.44397 40.3687 6.74288 40.316 7.07233Z" fill="#179BD7"/>
<path d="M43.38 2.62913L42.3593 9.12295C42.3393 9.24877 42.4368 9.36222 42.5637 9.36222H43.5898C43.7604 9.36222 43.9051 9.23858 43.9313 9.07022L44.9378 2.69349C44.9578 2.56768 44.8604 2.45386 44.7335 2.45386H43.5844C43.4829 2.45422 43.3957 2.5284 43.38 2.62913Z" fill="#179BD7"/>
<path d="M2.64211 10.6015L2.83229 9.39347L2.40865 9.38365H0.385742L1.79156 0.46983C1.79592 0.442921 1.81011 0.41783 1.83083 0.400012C1.85156 0.382194 1.87811 0.372375 1.90574 0.372375H5.31665C6.44901 0.372375 7.23047 0.608012 7.63847 1.0731C7.82974 1.29128 7.95156 1.51928 8.01047 1.77019C8.07229 2.03347 8.07338 2.34801 8.01301 2.73165L8.00865 2.75965V3.00547L8.19992 3.11383C8.36101 3.19928 8.48901 3.2971 8.5872 3.4091C8.75083 3.59565 8.85665 3.83274 8.90138 4.11383C8.94756 4.40292 8.93229 4.74692 8.85665 5.13638C8.76938 5.58438 8.62829 5.97456 8.43774 6.29383C8.26247 6.58801 8.0392 6.83201 7.77411 7.0211C7.52101 7.20074 7.22029 7.3371 6.88029 7.42438C6.55083 7.51019 6.1752 7.55347 5.7632 7.55347H5.49774C5.30792 7.55347 5.12356 7.62183 4.97883 7.74438C4.83374 7.86947 4.73774 8.04038 4.70829 8.22729L4.68829 8.33601L4.35229 10.4651L4.33701 10.5433C4.33301 10.568 4.32611 10.5804 4.31592 10.5887C4.30683 10.5964 4.29374 10.6015 4.28101 10.6015H2.64211Z" fill="#253B80"/>
<path d="M8.38103 2.78802C8.37085 2.85312 8.35921 2.91966 8.34612 2.98802C7.8963 5.29748 6.3574 6.0953 4.39194 6.0953H3.39121C3.15085 6.0953 2.9483 6.26984 2.91085 6.50693L2.39849 9.75639L2.2534 10.6775C2.22903 10.8331 2.34903 10.9735 2.50612 10.9735H4.28103C4.49121 10.9735 4.66976 10.8208 4.70285 10.6135L4.7203 10.5233L5.05449 8.40257L5.07594 8.28621C5.10867 8.07821 5.28758 7.92548 5.49776 7.92548H5.76321C7.48285 7.92548 8.82903 7.2273 9.22249 5.20693C9.38685 4.36293 9.30176 3.65821 8.86685 3.16257C8.73521 3.01312 8.57194 2.88912 8.38103 2.78802Z" fill="#179BD7"/>
<path d="M7.91053 2.60036C7.8418 2.58036 7.77089 2.56218 7.69816 2.54581C7.62507 2.52981 7.55016 2.51563 7.47307 2.50327C7.20325 2.45963 6.90762 2.4389 6.59089 2.4389H3.91743C3.85162 2.4389 3.78907 2.45381 3.73307 2.48072C3.6098 2.53999 3.51816 2.65672 3.49598 2.79963L2.92725 6.40181L2.91089 6.5069C2.94834 6.26981 3.15089 6.09527 3.39125 6.09527H4.39198C6.35743 6.09527 7.89634 5.29709 8.34616 2.98799C8.35962 2.91963 8.37089 2.85309 8.38107 2.78799C8.26725 2.72763 8.14398 2.67599 8.01125 2.63199C7.97853 2.62109 7.94471 2.61054 7.91053 2.60036Z" fill="#222D65"/>
<path d="M3.496 2.79964C3.51818 2.65673 3.60981 2.54 3.73309 2.48109C3.78945 2.45418 3.85163 2.43927 3.91745 2.43927H6.59091C6.90763 2.43927 7.20327 2.46 7.47309 2.50364C7.55018 2.516 7.62509 2.53018 7.69818 2.54618C7.77091 2.56255 7.84181 2.58073 7.91054 2.60073C7.94472 2.61091 7.97854 2.62145 8.01163 2.632C8.14436 2.676 8.26763 2.728 8.38145 2.788C8.51527 1.93455 8.38036 1.35345 7.91891 0.827273C7.41018 0.248 6.492 0 5.31709 0H1.90618C1.66618 0 1.46145 0.174545 1.42436 0.412L0.0036323 9.41745C-0.0243677 9.59564 0.113087 9.75636 0.292723 9.75636H2.39854L2.92727 6.40182L3.496 2.79964Z" fill="#253B80"/>
</mask>
<g mask="url(#mask0_3919_5803)">
<rect x="-1" width="47" height="11" fill="#34425E"/>
</g>
</svg>
