<svg width="43" height="14" viewBox="0 0 43 14" fill="none" xmlns="http://www.w3.org/2000/svg">
<path d="M22.1747 4.39188C22.1941 1.80616 24.6046 0 28.029 0C29.3643 0 30.4364 0.288729 31.2706 0.588988L30.6618 3.40661C29.1112 2.69838 27.742 2.74812 27.2459 2.81186C26.2446 2.94198 25.7875 3.44861 25.7764 3.92494C25.7427 5.49179 30.6459 5.68532 30.6306 9.19174C30.619 11.955 28.2387 13.7383 24.5985 13.7383C23.049 13.7221 21.5545 13.4008 20.7456 13.0324L21.3728 10.1205C22.1785 10.4931 23.1896 10.9869 24.9312 10.9599C25.9285 10.9445 26.9952 10.5516 27.0053 9.65967C27.0105 9.07744 26.5577 8.65958 25.2085 8.00849C23.895 7.37224 22.1521 6.30593 22.1747 4.39188ZM37.1244 0.242941H40.0815L42.8786 13.5304H39.6742L39.2555 11.5452H34.8109L34.088 13.5304H30.4503L35.6495 1.21751C35.8982 0.626541 36.459 0.242941 37.1244 0.242941ZM37.632 3.8332L35.808 8.82231H38.6817L37.632 3.8332ZM17.7668 0.242941H21.2307L18.3655 13.5304H14.9006L17.7668 0.242941ZM12.6405 0.242941H16.2796L10.666 13.5304H7.00385L4.24123 2.92616C4.07354 2.27344 3.92827 2.03379 3.41825 1.75906C2.58531 1.3104 1.20998 0.889412 0 0.628188L0.0816834 0.242941H5.9775C6.72842 0.242941 7.40463 0.738871 7.57547 1.59732L9.03415 9.28661L12.6405 0.242941Z" fill="#34425E"/>
</svg>
