<svg width="29" height="18" viewBox="0 0 29 18" fill="none" xmlns="http://www.w3.org/2000/svg">
<path fill-rule="evenodd" clip-rule="evenodd" d="M14.3997 1.92764C12.3316 3.57567 11.0038 6.13127 11.0038 9C11.0038 11.8687 12.3316 14.4243 14.3997 16.0724C16.4684 14.4243 17.7963 11.8687 17.7963 9C17.7963 6.13127 16.4684 3.57567 14.3997 1.92764ZM14.3997 1.92092C12.8863 0.717909 10.9769 0 8.90207 0C3.98547 0 0 4.02937 0 9C0 13.9706 3.98547 18 8.90207 18C10.9769 18 12.8863 17.2821 14.3997 16.0791C15.9138 17.2821 17.8231 18 19.898 18C24.8146 18 28.8 13.9706 28.8 9C28.8 4.02937 24.8146 0 19.898 0C17.8231 0 15.9138 0.717909 14.3997 1.92092Z" fill="#34425E"/>
<path fill-rule="evenodd" clip-rule="evenodd" d="M14.4011 1.93457C12.3329 3.5826 11.0051 6.13819 11.0051 9.00692C11.0051 11.8756 12.3329 14.4312 14.4011 16.0793C16.4698 14.4312 17.7976 11.8756 17.7976 9.00692C17.7976 6.13819 16.4698 3.5826 14.4011 1.93457Z" fill="#34425E" stroke="white"/>
</svg>
