<svg width="54" height="12" viewBox="0 0 54 12" fill="none" xmlns="http://www.w3.org/2000/svg">
<mask id="mask0_3919_7583" style="mask-type:alpha" maskUnits="userSpaceOnUse" x="0" y="0" width="54" height="12">
<g clip-path="url(#clip0_3919_7583)">
<path d="M9.50274 0H6.84387C6.84387 2.17211 5.84233 4.1543 4.10155 5.45994L3.05231 6.24332L7.13003 11.7745H10.4804L6.72464 6.68249C8.50119 4.92582 9.50274 2.55193 9.50274 0Z" fill="black"/>
<path d="M2.71848 0H0V11.7745H2.71848V0Z" fill="black"/>
<path d="M13.8309 0H11.2674V11.7745H13.8309V0Z" fill="black"/>
<path d="M36.3179 3.40652C35.3402 3.40652 34.4102 3.70326 33.7902 4.54599V3.63204H31.3579V11.7745H33.826V7.50148C33.826 6.26706 34.6606 5.66172 35.6622 5.66172C36.7353 5.66172 37.3553 6.30267 37.3553 7.48961V11.7863H39.7995V6.5994C39.7995 4.70029 38.2853 3.40652 36.3179 3.40652Z" fill="black"/>
<path d="M21.5809 3.63204V4.1543C20.8894 3.67952 20.0547 3.40652 19.1486 3.40652C16.7639 3.40652 14.8324 5.32937 14.8324 7.70326C14.8324 10.0771 16.7639 12 19.1486 12C20.0547 12 20.8894 11.727 21.5809 11.2522V11.7745H24.0252V3.63204H21.5809ZM19.3513 9.79228C18.1232 9.79228 17.1336 8.85459 17.1336 7.70326C17.1336 6.55192 18.1232 5.61424 19.3513 5.61424C20.5794 5.61424 21.569 6.55192 21.569 7.70326C21.569 8.85459 20.5794 9.79228 19.3513 9.79228Z" fill="black"/>
<path d="M27.8167 4.68844V3.63206H25.3128V11.7745H27.8286V7.97628C27.8286 6.69438 29.2236 6.00595 30.1894 6.00595C30.2013 6.00595 30.2132 6.00595 30.2132 6.00595V3.63206C29.2236 3.63206 28.3055 4.05936 27.8167 4.68844Z" fill="black"/>
<path d="M47.4065 3.63204V4.1543C46.7149 3.67952 45.8803 3.40652 44.9741 3.40652C42.5895 3.40652 40.658 5.32937 40.658 7.70326C40.658 10.0771 42.5895 12 44.9741 12C45.8803 12 46.7149 11.727 47.4065 11.2522V11.7745H49.8507V3.63204H47.4065ZM45.1768 9.79228C43.9488 9.79228 42.9591 8.85459 42.9591 7.70326C42.9591 6.55192 43.9488 5.61424 45.1768 5.61424C46.4049 5.61424 47.3945 6.55192 47.3945 7.70326C47.4065 8.85459 46.4049 9.79228 45.1768 9.79228Z" fill="black"/>
<path d="M51.7465 3.86946C51.7465 3.75077 51.663 3.67955 51.5318 3.67955H51.3053V4.29676H51.4126V4.07124H51.5318L51.6272 4.29676H51.7465L51.6391 4.0475C51.7107 4.01189 51.7465 3.95255 51.7465 3.86946ZM51.5318 3.96442H51.4126V3.77451H51.5318C51.6034 3.77451 51.6391 3.81011 51.6391 3.86946C51.6391 3.92881 51.6153 3.96442 51.5318 3.96442Z" fill="black"/>
<path d="M51.4961 3.41841C51.1742 3.41841 50.9119 3.67954 50.9119 4.00001C50.9238 4.32049 51.1742 4.58162 51.4961 4.58162C51.818 4.58162 52.0803 4.32049 52.0803 4.00001C52.0803 3.67954 51.818 3.41841 51.4961 3.41841ZM51.4961 4.47479C51.2338 4.47479 51.0311 4.26114 51.0311 4.00001C51.0311 3.73889 51.2457 3.52524 51.4961 3.52524C51.7584 3.52524 51.9611 3.73889 51.9611 4.00001C51.9611 4.26114 51.7465 4.47479 51.4961 4.47479Z" fill="black"/>
<path d="M52.4619 8.89018C51.6154 8.89018 50.9238 9.57861 50.9238 10.4213C50.9238 11.2641 51.6154 11.9525 52.4619 11.9525C53.3085 11.9525 54 11.2641 54 10.4213C54 9.56674 53.3085 8.89018 52.4619 8.89018Z" fill="black"/>
</g>
</mask>
<g mask="url(#mask0_3919_7583)">
<rect x="-3" width="57" height="12" fill="#34425E"/>
</g>
<defs>
<clipPath id="clip0_3919_7583">
<rect width="54" height="12" fill="white"/>
</clipPath>
</defs>
</svg>
