<svg width="17" height="18" viewBox="0 0 17 18" fill="none" xmlns="http://www.w3.org/2000/svg">
  <path d="M1 4.2002H2.66667H16" stroke="#B7C0D2" stroke-width="1.6" stroke-linecap="round" stroke-linejoin="round"/>
  <path d="M5.16699 4.2V2.6C5.16699 2.17565 5.34259 1.76869 5.65515 1.46863C5.96771 1.16857 6.39163 1 6.83366 1H10.167C10.609 1 11.0329 1.16857 11.3455 1.46863C11.6581 1.76869 11.8337 2.17565 11.8337 2.6V4.2M14.3337 4.2V15.4C14.3337 15.8243 14.1581 16.2313 13.8455 16.5314C13.5329 16.8314 13.109 17 12.667 17H4.33366C3.89163 17 3.46771 16.8314 3.15515 16.5314C2.84259 16.2313 2.66699 15.8243 2.66699 15.4V4.2H14.3337Z" stroke="#B7C0D2" stroke-width="1.6" stroke-linecap="round" stroke-linejoin="round"/>
  <path d="M6.8335 8.2002V13.0002" stroke="#B7C0D2" stroke-width="1.6" stroke-linecap="round" stroke-linejoin="round"/>
  <path d="M10.1665 8.2002V13.0002" stroke="#B7C0D2" stroke-width="1.6" stroke-linecap="round" stroke-linejoin="round"/>
</svg>
