<svg xmlns="http://www.w3.org/2000/svg" width="43" height="14" viewBox="0 0 43 14" fill="none">
  <path d="M22.1747 4.52714C22.1941 1.94142 24.6046 0.135254 28.029 0.135254C29.3643 0.135254 30.4364 0.423983 31.2706 0.724242L30.6618 3.54187C29.1112 2.83363 27.742 2.88337 27.2459 2.94711C26.2446 3.07723 25.7875 3.58387 25.7764 4.0602C25.7427 5.62704 30.6459 5.82057 30.6306 9.32699C30.619 12.0903 28.2387 13.8735 24.5985 13.8735C23.049 13.8574 21.5545 13.5361 20.7456 13.1676L21.3728 10.2558C22.1785 10.6283 23.1896 11.1221 24.9312 11.0951C25.9285 11.0798 26.9952 10.6868 27.0053 9.79492C27.0105 9.21269 26.5577 8.79483 25.2085 8.14375C23.895 7.50749 22.1521 6.44118 22.1747 4.52714ZM37.1244 0.378195H40.0815L42.8786 13.6657H39.6742L39.2555 11.6805H34.8109L34.088 13.6657H30.4503L35.6495 1.35276C35.8982 0.761795 36.459 0.378195 37.1244 0.378195ZM37.632 3.96845L35.808 8.95756H38.6817L37.632 3.96845ZM17.7668 0.378195H21.2307L18.3655 13.6657H14.9006L17.7668 0.378195ZM12.6405 0.378195H16.2796L10.666 13.6657H7.00385L4.24123 3.06142C4.07354 2.40869 3.92827 2.16904 3.41825 1.89431C2.58531 1.44565 1.20998 1.02467 0 0.763442L0.0816834 0.378195H5.9775C6.72842 0.378195 7.40463 0.874125 7.57547 1.73257L9.03415 9.42187L12.6405 0.378195Z" fill="#34425E"/>
</svg>
