<svg width="24" height="24" viewBox="0 0 24 24" fill="none" xmlns="http://www.w3.org/2000/svg">
  <path d="M20.3571 3.53571C18.1607 1.28571 15.1607 0 11.9464 0C5.41071 0 0.0535714 5.35714 0.0535714 11.8929C0.0535714 14.0357 0.642857 16.0714 1.66071 17.8393L0 24L6.26786 22.3929C8.03571 23.3036 9.96429 23.8393 11.9464 23.8393C18.5357 23.8393 24 18.4821 24 11.9464C24 8.73214 22.6071 5.78571 20.3571 3.53571ZM11.9464 21.8036C10.1786 21.8036 8.46429 21.3214 6.91071 20.4107L6.58929 20.1964L2.83929 21.2143L3.85714 17.5714L3.58929 17.1964C2.625 15.5893 2.08929 13.7679 2.08929 11.8929C2.08929 6.48214 6.53571 2.03571 12 2.03571C14.625 2.03571 17.0893 3.05357 18.9643 4.92857C20.8393 6.80357 21.9643 9.26786 21.9643 11.9464C21.9643 17.3571 17.4107 21.8036 11.9464 21.8036ZM17.4107 14.4107C17.0893 14.25 15.6429 13.5536 15.375 13.4464C15.1071 13.3393 14.8929 13.2857 14.6786 13.6071C14.5179 13.875 13.9286 14.5714 13.7679 14.7857C13.5536 14.9464 13.3929 15 13.125 14.8393C11.3571 13.9821 10.2321 13.2857 9.05357 11.3036C8.73214 10.7679 9.375 10.8214 9.91071 9.69643C10.0179 9.48214 9.96429 9.32143 9.91071 9.16071C9.85714 9 9.21429 7.55357 9 6.96429C8.73214 6.375 8.51786 6.42857 8.30357 6.42857C8.14286 6.42857 7.92857 6.42857 7.76786 6.42857C7.55357 6.42857 7.23214 6.48214 6.96429 6.80357C6.69643 7.125 5.94643 7.82143 5.94643 9.26786C5.94643 10.7679 6.96429 12.1607 7.125 12.375C7.28571 12.5357 9.21429 15.5357 12.2143 16.8214C14.0893 17.6786 14.8393 17.7321 15.8036 17.5714C16.3393 17.5179 17.5179 16.875 17.7857 16.1786C18.0536 15.4821 18.0536 14.8929 17.9464 14.7857C17.8929 14.625 17.6786 14.5714 17.4107 14.4107Z" fill="white"/>
</svg>
