<svg width="26" height="24" viewBox="0 0 26 24" fill="none" xmlns="http://www.w3.org/2000/svg">
<path d="M22.6645 2.95481C23.6014 3.79849 24.304 4.78278 24.6788 5.95455C25.0535 7.1732 25.1004 8.34497 24.8193 9.56362C24.5383 10.7823 23.9761 11.8134 23.133 12.6571L14.0922 22.0313C13.7643 22.3594 13.3895 22.5 13.0148 22.5C12.5932 22.5 12.2185 22.3594 11.9374 22.0313L2.89663 12.704C2.0066 11.8134 1.44448 10.7823 1.16342 9.56362C0.882361 8.34497 0.976047 7.1732 1.35079 5.95455C1.72554 4.78278 2.38135 3.79849 3.36506 2.95481C4.20824 2.25175 5.14511 1.78304 6.2225 1.59555C7.25306 1.40807 8.33046 1.50181 9.36101 1.82991C10.3916 2.20488 11.2816 2.76733 12.0779 3.56413L13.0148 4.50155L13.9517 3.56413C14.7012 2.76733 15.638 2.20488 16.6686 1.82991C17.6991 1.50181 18.7297 1.40807 19.8071 1.59555C20.8376 1.78304 21.8213 2.25175 22.6645 2.95481Z" stroke="#34425E" stroke-width="2"/>
</svg>
